<svg width="688" height="660" viewBox="0 0 688 660" fill="none" xmlns="http://www.w3.org/2000/svg">
<path d="M344 0.333313C153.94 0.333313 0 151.693 0 338.371C0 487.753 98.556 614.43 235.21 659.093C252.41 662.275 258.717 651.812 258.717 642.839C258.717 634.813 258.43 613.542 258.287 585.363C162.597 605.745 142.416 540.012 142.416 540.012C126.764 500.997 104.146 490.562 104.146 490.562C72.9853 469.607 106.554 470.037 106.554 470.037C141.097 472.387 159.243 504.867 159.243 504.867C189.917 556.553 239.768 541.617 259.433 532.989C262.529 511.116 271.387 496.238 281.22 487.781C204.823 479.325 124.528 450.257 124.528 320.741C124.528 283.847 137.858 253.689 159.931 230.039C156.061 221.497 144.451 187.125 162.941 140.571C162.941 140.571 191.751 131.512 257.541 175.229C285.061 167.718 314.301 163.991 343.541 163.819C372.781 163.991 402.021 167.718 429.541 175.229C494.901 131.512 523.711 140.571 523.711 140.571C542.201 187.125 530.591 221.497 527.151 230.039C549.081 253.689 562.411 283.847 562.411 320.741C562.411 450.601 482.001 479.181 405.461 487.495C417.501 497.643 428.681 518.369 428.681 550.045C428.681 595.281 428.251 631.631 428.251 642.61C428.251 651.468 434.271 662.046 451.901 658.663C589.53 614.287 688 487.523 688 338.371C688 151.693 533.974 0.333313 344 0.333313V0.333313Z" fill="url(#paint0_linear)"/>
<defs>
<linearGradient id="paint0_linear" x1="344" y1="0.333313" x2="344" y2="659.676" gradientUnits="userSpaceOnUse">
<stop offset="0.567708" stop-color="#E5E5E5"/>
<stop offset="1" stop-color="#E5E5E5" stop-opacity="0.12"/>
</linearGradient>
</defs>
</svg>
